<?xml version="1.0" encoding="UTF-8" standalone="no"?>
<svg
   data-name="Layer 1"
   viewBox="0 0 374.24 306.74"
   version="1.1"
   id="svg274"
   sodipodi:docname="feature.svg"
   inkscape:version="1.1.2 (b8e25be8, 2022-02-05)"
   xmlns:inkscape="http://www.inkscape.org/namespaces/inkscape"
   xmlns:sodipodi="http://sodipodi.sourceforge.net/DTD/sodipodi-0.dtd"
   xmlns:xlink="http://www.w3.org/1999/xlink"
   xmlns="http://www.w3.org/2000/svg"
   xmlns:svg="http://www.w3.org/2000/svg">
  <sodipodi:namedview
     id="namedview276"
     pagecolor="#ffffff"
     bordercolor="#666666"
     borderopacity="1.0"
     inkscape:pageshadow="2"
     inkscape:pageopacity="0.0"
     inkscape:pagecheckerboard="0"
     showgrid="false"
     inkscape:zoom="2.1002565"
     inkscape:cx="212.59308"
     inkscape:cy="77.133436"
     inkscape:window-width="1383"
     inkscape:window-height="916"
     inkscape:window-x="1873"
     inkscape:window-y="25"
     inkscape:window-maximized="0"
     inkscape:current-layer="svg274" />
  <defs
     id="defs64">
    <linearGradient
       id="a"
       x1="119.32"
       y1="148.05"
       x2="122.41"
       y2="-55.23"
       gradientTransform="matrix(1 0 0 -1 0 352)"
       gradientUnits="userSpaceOnUse">
      <stop
         offset=".01"
         id="stop9" />
      <stop
         offset=".08"
         stop-opacity=".69"
         id="stop11" />
      <stop
         offset=".21"
         stop-opacity=".32"
         id="stop13" />
      <stop
         offset="1"
         stop-opacity="0"
         id="stop15" />
    </linearGradient>
    <linearGradient
       id="d"
       x1="-737.38"
       y1="90.09"
       x2="-734.81"
       y2="88.16"
       gradientTransform="rotate(180 -252.805 176)"
       xlink:href="#a" />
    <linearGradient
       id="e"
       x1="-982.47"
       y1="326.9"
       x2="-328.94"
       y2="-161.88"
       gradientTransform="rotate(180 -252.805 176)"
       xlink:href="#a" />
    <linearGradient
       id="f"
       x1="-762.66"
       y1="184.94"
       x2="-694.83"
       y2="-30.49"
       gradientTransform="rotate(180 -252.805 176)"
       xlink:href="#a" />
    <linearGradient
       id="g"
       x1="-724.19"
       y1="225.84"
       x2="-765.66"
       y2="-54.52"
       gradientTransform="rotate(180 -266.045 167.505)"
       xlink:href="#a" />
    <linearGradient
       id="h"
       x1="-765.32"
       y1="186.64"
       x2="-797.28"
       y2="-29.39"
       gradientTransform="rotate(180 -266.045 167.505)"
       xlink:href="#a" />
    <linearGradient
       id="i"
       x1="-787.53"
       y1="122.49"
       x2="-804.53"
       y2="78.76"
       gradientTransform="rotate(180 -252.805 176)"
       xlink:href="#a" />
    <linearGradient
       id="j"
       x1="-712.32"
       y1="295.39"
       x2="-639.47"
       y2="-340.86"
       gradientTransform="rotate(180 -252.805 176)"
       xlink:href="#a" />
    <linearGradient
       id="k"
       x1="224.71"
       y1="268.52"
       x2="107.66"
       y2="67.13"
       xlink:href="#a" />
    <linearGradient
       id="l"
       x1="189.86"
       y1="254.1"
       x2="226.57"
       y2="134.07"
       gradientTransform="matrix(1 0 0 -1 -26.48 335.01)"
       xlink:href="#a" />
    <linearGradient
       id="c"
       x1="202.6"
       y1="221.13"
       x2="367.36"
       y2="55.32"
       gradientTransform="matrix(1 0 0 -1 0 352)"
       gradientUnits="userSpaceOnUse">
      <stop
         offset="0"
         stop-color="#fff"
         stop-opacity="0"
         id="stop27" />
      <stop
         offset=".54"
         stop-color="#fff"
         id="stop29" />
    </linearGradient>
    <linearGradient
       id="b"
       x1="224.95"
       y1="119.19"
       x2="220.16"
       y2="216.78"
       gradientTransform="matrix(1 0 0 -1 0 352)"
       gradientUnits="userSpaceOnUse">
      <stop
         offset=".01"
         id="stop32" />
      <stop
         offset=".13"
         stop-opacity=".69"
         id="stop34" />
      <stop
         offset=".25"
         stop-opacity=".32"
         id="stop36" />
      <stop
         offset="1"
         stop-opacity="0"
         id="stop38" />
    </linearGradient>
    <linearGradient
       id="m"
       x1="291.73"
       y1="112.6"
       x2="275.79"
       y2="151.72"
       xlink:href="#b" />
    <linearGradient
       id="n"
       x1="98.76"
       y1="129.88"
       x2="120.94"
       y2="129.88"
       xlink:href="#a" />
    <linearGradient
       id="o"
       x1="89.54"
       y1="129.68"
       x2="97.96"
       y2="129.68"
       xlink:href="#a" />
    <linearGradient
       id="p"
       x1="86.84"
       y1="188.87"
       x2="108.8"
       y2="127.49"
       xlink:href="#a" />
    <linearGradient
       id="q"
       x1="148.71"
       y1="96.14"
       x2="163.73"
       y2="162.02"
       xlink:href="#c" />
    <linearGradient
       id="r"
       x1="146.63"
       y1="96.61"
       x2="161.65"
       y2="162.49"
       xlink:href="#c" />
    <linearGradient
       id="s"
       x1="150.08"
       y1="95.82"
       x2="165.09"
       y2="161.71"
       xlink:href="#c" />
    <linearGradient
       id="t"
       x1="147.9"
       y1="96.32"
       x2="162.92"
       y2="162.2"
       xlink:href="#c" />
    <linearGradient
       id="u"
       x1="147.45"
       y1="96.42"
       x2="162.46"
       y2="162.31"
       xlink:href="#c" />
    <linearGradient
       id="v"
       x1="136.58"
       y1="98.9"
       x2="151.6"
       y2="164.78"
       xlink:href="#c" />
    <linearGradient
       id="w"
       x1="137.12"
       y1="98.77"
       x2="152.13"
       y2="164.66"
       xlink:href="#c" />
    <linearGradient
       id="x"
       x1="112.46"
       y1="104.4"
       x2="127.47"
       y2="170.28"
       xlink:href="#c" />
    <linearGradient
       id="y"
       x1="113.57"
       y1="104.15"
       x2="128.59"
       y2="170.03"
       xlink:href="#c" />
    <linearGradient
       id="z"
       x1="122.23"
       y1="102.17"
       x2="137.25"
       y2="168.05"
       xlink:href="#c" />
    <linearGradient
       id="A"
       x1="104.71"
       y1="106.16"
       x2="119.73"
       y2="172.05"
       xlink:href="#c" />
    <linearGradient
       id="B"
       x1="118.28"
       y1="103.07"
       x2="133.3"
       y2="168.96"
       xlink:href="#c" />
    <linearGradient
       id="C"
       x1="116.2"
       y1="103.54"
       x2="131.22"
       y2="169.43"
       xlink:href="#c" />
    <linearGradient
       id="D"
       x1="119.66"
       y1="102.76"
       x2="134.67"
       y2="168.64"
       xlink:href="#c" />
    <linearGradient
       id="E"
       x1="117.46"
       y1="103.25"
       x2="132.48"
       y2="169.14"
       xlink:href="#c" />
    <linearGradient
       id="F"
       x1="135.33"
       y1="99.18"
       x2="150.34"
       y2="165.07"
       xlink:href="#c" />
    <linearGradient
       id="G"
       x1="133.22"
       y1="99.66"
       x2="148.23"
       y2="165.55"
       xlink:href="#c" />
    <linearGradient
       id="H"
       x1="136.68"
       y1="98.88"
       x2="151.7"
       y2="164.76"
       xlink:href="#c" />
    <linearGradient
       id="I"
       x1="134"
       y1="99.49"
       x2="149.02"
       y2="165.37"
       xlink:href="#c" />
  </defs>
  <path
     d="M170.52.32a218.94 218.94 0 00-104.33 33c-14.67 9.3-28.56 20.62-37.67 35.43s-12.88 33.57-7 49.91c3.51 9.71 10.11 17.95 14.82 27.13s7.42 20.48 2.73 29.67c-5.38 10.64-18.36 14.55-27.55 22.21-14.59 12.14-12.93 23.1-8 38.94 4.27 13.84 11.13 25.82 22.26 35.28 21.74 18.48 51.84 24.19 79.17 28.73 39.6 6.58 80.2 8.3 120.06 3 19.51-2.58 37.72-8 56.63-12.77 18.48-4.63 37.1-10.41 52.86-21.45a93.21 93.21 0 0028.4-120.88c-15.76-29-45.66-47.7-63.83-75.21-10.68-16.16-17.11-35.07-29.55-49.88-11.43-13.42-41.59-18.7-57.94-21.24A188.43 188.43 0 00186.82.06c-5.43-.12-10.87-.05-16.3.26z"
     fill="#4fc3f7"
     opacity=".18"
     style="isolation:isolate;fill:#ff6600"
     id="path66" />
  <path
     d="M231.08 262.5l-.57.08c-.42.33.75.42.57-.08z"
     transform="translate(-26.48 -16.99)"
     fill="url(#d)"
     id="path70" />
  <path
     d="M103.86 196.1c4.27 1.71 8.76 3.37 11.53 5.33L181 247.5a157.54 157.54 0 0015.68 10c4.42 2.39 6.94 7 12.3 8.16a21.31 21.31 0 008-.14 74.82 74.82 0 0012.68-3.22c.51-.17 1.22-.28 1.45.21 38.21-5.22 74.75-19.09 112.63-26.31a2.08 2.08 0 00.39-4 51.36 51.36 0 00-9.78-2.4c-6-1.12-12.07-2.21-18.13-3.2a307.38 307.38 0 00-36.93-4.1c-20.56-.83-41.3 1.33-61.63-1.86-19.32-3-37.54-10.75-55.52-18.46-4.33-1.86-8.75-3.79-12.15-7-2.66-2.55-4.8-5.94-8.2-7.62s-7.78-1.44-11.6-1.26a172.4 172.4 0 00-22.4 3c-1.4 2.2-2.7 4.49-3.93 6.8z"
     transform="translate(-26.48 -16.99)"
     fill="url(#e)"
     id="path72" />
  <path
     d="M315.52 206.27l-85.82-37.33a10.27 10.27 0 00-6-1l-106.18 9.07c-2 .29-1.67 9 0 10.42l62.69 53.36a15.75 15.75 0 0014 3.52l120.57-29.3c1.53-.42 2.19-8 .74-8.74z"
     fill="#4fc3f7"
     id="path74" />
  <path
     d="M342 223.26l-85.82-37.33a10.27 10.27 0 00-6-1L144 194c-2 .29-1.67 9 0 10.42l62.69 53.36a15.75 15.75 0 0014 3.52L341.26 232c1.53-.42 2.19-8 .74-8.74z"
     transform="translate(-26.48 -16.99)"
     fill="url(#f)"
     id="path76"
     style="fill:#d45500" />
  <path
     d="M117.52 181.19l62.68 53.36a15.71 15.71 0 0014 3.51l120.52-29.29a2 2 0 001.06-2.62 2 2 0 00-.76-.9l-33.05-18.65-8.67-4.87-26.39-14.89a10.27 10.27 0 00-6-1l-122.3 10.65c-2.04.29-2.71 3.3-1.09 4.7z"
     fill="#4fc3f7"
     id="path78"
     style="fill:#ff7f2a" />
  <path
     fill="url(#g)"
     d="M240.96 168.79l-111.84 16.55 34.43 27.94 114.77-23.22-37.36-21.27z"
     id="path80" />
  <path
     fill="url(#h)"
     d="M252.66 197l-46.09 9.31 23.83 19.44L278.32 215l-25.66-18z"
     id="path82" />
  <path
     d="M302.18 235.36a7.43 7.43 0 01-4.75 3.89c-3.38.81-23.12 5.86-23.12 5.86s-3.21.39-5-1.76z"
     transform="translate(-26.48 -16.99)"
     fill="url(#i)"
     id="path84" />
  <path
     d="M244.46 165.84l-126.21 18a3.67 3.67 0 01-4.1-2.91l-18-90.92a7 7 0 015.44-8.27 6.21 6.21 0 01.85-.12l124.64-11a7 7 0 017.62 6.25z"
     fill="#4fc3f7"
     id="path86"
     style="fill:#ff6600" />
  <path
     d="M270.94 182.83l-125.88 17.91a4 4 0 01-4.5-3.19L122.62 107a7 7 0 015.44-8.27 6.21 6.21 0 01.85-.12l124.65-11a7 7 0 017.62 6.25z"
     transform="translate(-26.48 -16.99)"
     fill="url(#j)"
     id="path88" />
  <path
     fill="#fff"
     d="M120.52 178.57L102.6 86.83l127.44-8.86 10.11 86.85-119.63 13.75z"
     id="path90" />
  <path
     d="M164.69 161.42c1 9 1.06 18.11 2.67 27 .37 2 1 4.28 2.78 5.29a7.16 7.16 0 004.52.4 93.67 93.67 0 0027.43-8.18A181 181 0 00191 151.17c-1.27-2.9-2.66-5.84-4.92-8.06-3.43-3.36-8.18-4.42-12.74-5.32-2.37-.47-4.78-.79-7.13-1.39-1.45-.37-5.57-2.79-6.77-2.56-4 .75 0 7.07 1 9.52a66 66 0 014.25 18.06z"
     transform="translate(-26.48 -16.99)"
     fill="url(#k)"
     id="path96" />
  <path
     fill="#4fc3f7"
     d="M222.05 114.03l-95.31 9.03-2.43-11.14 95.32-9.04 2.42 11.15z"
     id="path98" />
  <path
     fill="url(#l)"
     d="M222.05 114.03l-95.31 9.03-2.43-11.14 95.32-9.04 2.42 11.15z"
     id="path100"
     style="fill:#ff6600" />
  <path
     d="M211.77 107.5c7.36-.79 14.49 3.9 18.43 10.16s5 9.29 5.5 16.67c.16 2.4.36 5.06 2.13 6.69 2.95 2.71 7.56.6 11.42-.46 9.15-2.52 19.78 2.84 23.2 11.7 3.34 8.65-1.44 21.49 6.16 26.81 6.77 4.72 25-6.67 30.71-16.92 0 0 1.66 22.51-16.11 33.76-26.37 16.7-75.8 23.19-81 22.63-8.65-.95-18.09-3.95-22.23-11.6s-1.46-17.27-1.46-26.1c0-5.08-2.29-11.44-7.37-11.55-3.8-.09-6.55 3.53-8.32 6.89s-3.62 7.23-7.23 8.43c-3.22 1.07-6.88-.52-9.09-3.09s-3.22-6-3.9-9.29c-2.35-11.54-1.28-23.53-3.17-35.16-.72-4.42-2-8.95-5-12.26s-10.05-8.21-15.43-8z"
     fill="#4fc3f7"
     id="path102" />
  <path
     d="M238.25 124.49c7.36-.79 14.49 3.9 18.43 10.16s5 9.29 5.5 16.67c.16 2.4.36 5.06 2.13 6.69 2.95 2.71 7.56.6 11.42-.46 9.15-2.52 19.78 2.84 23.2 11.7 2.78 7.2 1.12 15.28 3.81 22.49 1.56 4.2 4.07 4.7 8.44 4.39a24.31 24.31 0 0011.82-4.42c5.23-3.61 9.25-8.68 13.19-13.67-.93 6.15-.77 12.54-2.86 18.39-3.45 9.68-12.4 16.24-21.33 21.33A164 164 0 01263.21 236c-8 1.62-16.38.37-24.48-.51-8.65-1-18.09-4-22.23-11.6s-1.45-17.27-1.42-26.1c0-5.08-2.29-11.44-7.37-11.55-3.8-.09-6.55 3.53-8.32 6.89s-3.62 7.23-7.23 8.43c-3.22 1.07-6.88-.52-9.09-3.09s-3.22-6-3.9-9.29c-2.35-11.54-1.28-23.53-3.17-35.16-.72-4.42-2-9-5-12.26s-10.05-8.21-15.43-8z"
     transform="translate(-26.48 -16.99)"
     fill="url(#c)"
     id="path104"
     style="fill:#ffccaa" />
  <path
     d="M269.32 159.24l-62.15 23.5s-3.43.83-7.78 10.43-19.86 13-20.65-17.64-2.41-28.7-6.3-35.06l89.56 8.86s-.59 12.16 7.32 9.91z"
     transform="translate(-26.48 -16.99)"
     fill="url(#b)"
     id="path106" />
  <path
     d="M134.37 118.07c2.8 3.21 4.28 7.34 5.4 11.45 3.47 12.6 4.22 25.81 3.94 38.89-.1 4.65-.31 9.4 1 13.85a20.94 20.94 0 0013.68 13.81c3.75 1.16 7.88 1.27 11.25 3.28 6.67 4 7.51 13.37 12.56 19.28 6.79 7.94 20.37 8.69 25 18"
     fill="none"
     id="path108" />
  <path
     fill="none"
     stroke="#473f47"
     stroke-linecap="round"
     stroke-linejoin="round"
     stroke-width="2"
     d="M165.55 121.84l46.96-5.01M170.92 136.88l46.96-5.01M173.18 146.91l46.97-5.01M205.77 125.67l9.12-.97M187.52 127.62l12.36-1.32M167.92 129.71l11.04-1.18M208.46 166.91l45.98-17.07M212.19 181.86l45.98-17.07M213.4 192.16l45.99-17.07M247.05 161.08l8.92-3.31M229.18 167.71l12.1-4.49M209.99 174.84l10.81-4.02"
     id="path110" />
  <path
     d="M331.48 184.83s-43 38.38-72 34.29c0 0-23.83 26.91-33.17 11.16s6.69-25.89 6.69-25.89l69.69-12.65s4.62 15.55 28.79-6.91z"
     transform="translate(-26.48 -16.99)"
     opacity=".45"
     fill="url(#m)"
     style="isolation:isolate"
     id="path112" />
  <g
     id="g877"
     transform="matrix(0.5974827,0,0,0.5974827,-79.490701,101.06604)">
    <path
       d="m 578.7221,285.71501 h -82.39068 c -5.01284,0 -9.07734,5.14743 -9.07734,11.49802 0,6.35058 4.06374,11.49801 9.07734,11.49801 h 82.39068 c 5.01284,0 9.07734,-5.14743 9.07734,-11.49801 0,-6.35059 -4.0645,-11.49802 -9.07734,-11.49802 z"
       id="path71"
       inkscape:connector-curvature="0"
       style="fill:#a7b1b6;fill-opacity:1;stroke-width:0.857283" />
    <path
       d="m 539.46449,209.70308 c -0.57643,-0.36071 -1.26872,-0.16088 -1.67231,0.48513 -3.90658,6.25022 -12.79146,17.33294 -11.32191,31.49741 1.67231,16.12009 9.246,24.42898 7.72238,34.84308 -0.21725,1.48179 0.34952,2.97239 1.38651,3.64606 1.03699,0.67492 2.29122,0.37076 3.07331,-0.74405 5.90041,-8.40818 11.94951,-20.3996 8.83372,-31.34532 -4.7128,-16.55747 -9.34063,-23.90615 -7.26858,-36.37892 0.13421,-0.81317 -0.17669,-1.64142 -0.75312,-2.00339 z"
       id="path73"
       inkscape:connector-curvature="0"
       style="fill:#cad3db;fill-opacity:1;stroke-width:1.1016" />
    <path
       d="m 574.361,209.70308 c -0.57643,-0.36071 -1.26872,-0.16088 -1.67232,0.48513 -3.90657,6.25022 -12.79146,17.33294 -11.32191,31.49741 1.67232,16.12009 9.24601,24.42898 7.72238,34.84308 -0.21724,1.48179 0.34953,2.97239 1.38652,3.64606 1.03699,0.67492 2.29123,0.37076 3.07331,-0.74405 5.9004,-8.40818 11.94951,-20.3996 8.83372,-31.34532 -4.7128,-16.55747 -9.34063,-23.90615 -7.26858,-36.37892 0.13421,-0.81317 -0.17669,-1.64142 -0.75312,-2.00339 z"
       id="path75"
       inkscape:connector-curvature="0"
       style="fill:#cad3db;fill-opacity:1;stroke-width:1.1016" />
    <path
       d="m 504.56798,209.70308 c -0.57643,-0.36071 -1.26872,-0.16088 -1.67231,0.48513 -3.90658,6.25022 -12.79147,17.33294 -11.32192,31.49741 1.67232,16.12009 9.24601,24.42898 7.72239,34.84308 -0.21725,1.48179 0.34952,2.97239 1.38651,3.64606 1.03699,0.67492 2.29123,0.37076 3.07331,-0.74405 5.9004,-8.40818 11.94951,-20.3996 8.83372,-31.34532 -4.7128,-16.55747 -9.34062,-23.90615 -7.26858,-36.37892 0.13517,-0.81317 -0.17669,-1.64142 -0.75312,-2.00339 z"
       id="path77"
       inkscape:connector-curvature="0"
       style="fill:#cad3db;fill-opacity:1;stroke-width:1.1016" />
    <g
       id="g120"
       style="fill:#a7b1b6;fill-opacity:1"
       transform="matrix(3.866054,0,0,3.866054,547.72314,-31.153084)">
      <path
         d="M 8.097,11.695 5.189,6.659 C 4.836,6.048 5.045,5.267 5.656,4.914 6.266,4.562 7.047,4.772 7.4,5.382 l 2.907,5.037 z M 16.311,6.952 18.523,5.675 15.616,0.639 c -0.354,-0.61 -1.134,-0.82 -1.745,-0.468 -0.61,0.353 -0.819,1.134 -0.467,1.744 z m 8.428,11.489 c 0.471,1.588 -0.602,2.682 -2.188,3.709 0.004,0.01 0.017,0.016 0.021,0.024 1.051,1.822 1.721,6.029 -3.278,8.916 -0.61,0.351 -1.392,0.142 -1.744,-0.469 -0.352,-0.608 -0.143,-1.392 0.467,-1.744 4.062,-2.344 2.416,-5.303 2.346,-5.428 -0.006,-0.011 -0.006,-0.021 -0.013,-0.031 -1.686,0.86 -3.166,1.242 -4.306,0.039 C 13.93,24.024 12.101,23.612 10.691,21.17 10.496,20.832 9.839,19.696 9.839,19.696 L 7.286,15.273 C 6.818,14.463 7.098,13.417 7.909,12.948 L 19.702,6.14 c 0.812,-0.468 1.856,-0.187 2.328,0.624 l 2.553,4.423 c 0,0 0.656,1.136 0.851,1.474 1.409,2.443 0.851,4.234 -0.695,5.78 z M 22.66,14.644 C 22.544,14.441 22.148,13.757 22.148,13.757 L 21.463,12.57 c -0.282,-0.487 -0.912,-0.656 -1.397,-0.375 l -7.096,4.096 c -0.487,0.281 -0.656,0.912 -0.375,1.398 l 0.686,1.188 c 0,0 0.395,0.686 0.512,0.887 1.413,2.449 3.521,1.516 5.97,0.103 2.449,-1.416 4.311,-2.776 2.897,-5.223 z m -2.14,-1.284 -6.767,3.908 0.296,0.514 6.767,-3.907 z m 0.672,1.164 -6.768,3.908 0.296,0.514 6.767,-3.907 z m -6.096,5.07 0.297,0.516 6.767,-3.906 -0.297,-0.515 z"
         id="path118"
         style="fill:#a7b1b6;fill-opacity:1" />
    </g>
    <g
       id="g122"
       transform="matrix(3.866054,0,0,3.866054,500.7062,361.71726)" />
    <g
       id="g124"
       transform="matrix(3.866054,0,0,3.866054,500.7062,361.71726)" />
    <g
       id="g126"
       transform="matrix(3.866054,0,0,3.866054,500.7062,361.71726)" />
    <g
       id="g128"
       transform="matrix(3.866054,0,0,3.866054,500.7062,361.71726)" />
    <g
       id="g130"
       transform="matrix(3.866054,0,0,3.866054,500.7062,361.71726)" />
    <g
       id="g132"
       transform="matrix(3.866054,0,0,3.866054,500.7062,361.71726)" />
    <g
       id="g134"
       transform="matrix(3.866054,0,0,3.866054,500.7062,361.71726)" />
    <g
       id="g136"
       transform="matrix(3.866054,0,0,3.866054,500.7062,361.71726)" />
    <g
       id="g138"
       transform="matrix(3.866054,0,0,3.866054,500.7062,361.71726)" />
    <g
       id="g140"
       transform="matrix(3.866054,0,0,3.866054,500.7062,361.71726)" />
    <g
       id="g142"
       transform="matrix(3.866054,0,0,3.866054,500.7062,361.71726)" />
    <g
       id="g144"
       transform="matrix(3.866054,0,0,3.866054,500.7062,361.71726)" />
    <g
       id="g146"
       transform="matrix(3.866054,0,0,3.866054,500.7062,361.71726)" />
    <g
       id="g148"
       transform="matrix(3.866054,0,0,3.866054,500.7062,361.71726)" />
    <g
       id="g150"
       transform="matrix(3.866054,0,0,3.866054,500.7062,361.71726)" />
    <g
       id="g1969"
       transform="translate(-417.57416,-207.99018)">
      <path
         id="path10"
         d="m 733.86267,486.69446 c 0.60136,0.12424 1.1441,0.41598 1.77531,0.41598 0.69926,0 1.30505,-0.28233 1.96671,-0.41598 z"
         inkscape:connector-curvature="0"
         style="stroke-width:2.43511" />
      <path
         id="path156"
         d="m 719.16262,486.69446 c 0.60135,0.12424 1.14409,0.41598 1.7753,0.41598 0.69927,0 1.30505,-0.28233 1.9667,-0.41598 z"
         inkscape:connector-curvature="0"
         style="stroke-width:2.43511" />
      <path
         id="path154"
         d="m 704.46256,486.69446 c 0.60134,0.12424 1.14409,0.41598 1.77529,0.41598 0.69928,0 1.30505,-0.28233 1.96671,-0.41598 z"
         inkscape:connector-curvature="0"
         style="stroke-width:2.43511" />
      <path
         id="path152"
         d="m 689.7625,486.69446 c 0.60136,0.12424 1.14409,0.41598 1.77531,0.41598 0.69926,0 1.30503,-0.28233 1.96671,-0.41598 z"
         inkscape:connector-curvature="0"
         style="stroke-width:2.43511" />
      <path
         id="path150"
         d="m 675.06245,486.69446 c 0.60135,0.12424 1.14409,0.41598 1.7753,0.41598 0.69927,0 1.30505,-0.28233 1.9667,-0.41598 z"
         inkscape:connector-curvature="0"
         style="stroke-width:2.43511" />
      <path
         id="path148"
         d="m 660.36239,486.69446 c 0.60134,0.12424 1.14409,0.41598 1.7753,0.41598 0.69927,0 1.30504,-0.28233 1.9667,-0.41598 z"
         inkscape:connector-curvature="0"
         style="stroke-width:2.43511" />
      <path
         inkscape:connector-curvature="0"
         d="m 630.4967,426.31742 c -1.47001,0 -2.45042,0.96651 -2.45042,2.41867 v 9.68373 c 0,1.45215 0.98041,2.41867 2.45042,2.41867 h 7.25599 v -4.83733 h -4.80556 v -4.84188 h 4.80556 v -4.84186 z"
         style="fill:#cad3db;fill-opacity:1;stroke-width:2.43511"
         id="path144" />
      <path
         d="m 647.59528,418.74805 c -5.39003,0 -9.79719,2.61115 -9.79719,5.80061 v 2.90031 h -0.0454 v 2.89759 h 0.0454 v 2.90031 h -0.0454 v 2.90031 h 0.0454 v 33.34402 c -0.18397,3.19855 -0.20256,4.29716 0,8.6982 v 2.90031 c 0,2.75453 3.18628,4.92896 7.3513,5.65384 0.0261,0.0151 2.28315,0.15343 2.30975,0.16852 l 2.62287,-0.12776 c -7.2e-4,-0.0144 -0.0364,-0.0263 -0.0364,-0.0407 1.96,-0.28995 3.67586,-0.87251 4.90086,-1.74236 1.3468,0.9108 3.37742,1.51081 5.57699,1.78313 h 3.73917 c 2.12023,-0.25655 4.07931,-0.78868 5.38642,-1.78313 1.34679,0.9108 3.37287,1.51081 5.57244,1.78313 h 3.74373 c 2.12021,-0.25655 4.07476,-0.78868 5.38186,-1.78313 1.34681,0.9108 3.37741,1.51081 5.57699,1.78313 h 3.73918 c 2.12023,-0.25655 4.07931,-0.78868 5.38641,-1.78313 1.3468,0.9108 3.37287,1.51081 5.57246,1.78313 h 3.7437 c 2.12023,-0.25655 4.07478,-0.78868 5.38187,-1.78313 1.34681,0.9108 3.37287,1.51081 5.57246,1.78313 h 3.74371 c 2.12023,-0.25655 4.07477,-0.78868 5.38186,-1.78313 1.34681,0.9108 3.37742,1.51081 5.577,1.78313 h 3.74371 c 2.12023,-0.25655 4.07478,-0.78868 5.38187,-1.78313 1.225,0.86985 2.94086,1.45241 4.90086,1.74236 -0.0223,0.0147 -0.1216,0.0262 -0.14522,0.0407 h 5.01432 c 10e-4,-0.0139 0.0264,-0.0268 0.0272,-0.0407 4.16502,-0.5799 7.35129,-2.8993 7.35129,-5.65383 0.25824,-19.74407 0.0897,-36.79115 0,-56.54105 0,-3.18945 -4.40716,-5.8006 -9.79717,-5.8006 -2.94001,0 -5.63629,0.7257 -7.35129,2.03048 -1.71502,-1.1598 -4.41127,-2.03048 -7.35128,-2.03048 -2.94001,0 -5.63629,0.7257 -7.3513,2.03048 -1.715,-1.1598 -4.40672,-2.03048 -7.34674,-2.03048 -2.94001,0 -5.63629,0.7257 -7.35129,2.03048 -1.71501,-1.1598 -4.41128,-2.03048 -7.35129,-2.03048 -2.94,0 -5.63174,0.7257 -7.34674,2.03048 -1.71501,-1.1598 -4.41129,-2.03048 -7.3513,-2.03048 -2.94001,0 -5.63627,0.7257 -7.35128,2.03048 -1.715,-1.1598 -4.41128,-2.03048 -7.35129,-2.03048 -2.94001,0 -5.63174,0.7257 -7.34674,2.03048 -1.71502,-1.1598 -4.41128,-2.03048 -7.3513,-2.03048 -2.94001,0 -5.63627,0.7257 -7.35128,2.03048 -1.71502,-1.1598 -4.41128,-2.03048 -7.35129,-2.03048 z m 0,2.90031 c 2.69501,0 4.90086,1.30557 4.90086,2.9003 v 56.54105 c 0,1.59473 -2.20585,2.89759 -4.90086,2.89759 -2.69501,0 -4.89632,-1.30286 -4.89632,-2.89759 v -4.34911 -5.80061 -36.24433 -5.79789 -4.34911 c 0,-1.59473 2.20131,-2.9003 4.89632,-2.9003 z m 14.70257,0 c 2.69502,0 4.90087,1.30557 4.90087,2.9003 v 56.54105 c 0,1.59473 -2.20585,2.89759 -4.90087,2.89759 -2.69501,0 -4.90086,-1.30286 -4.90086,-2.89759 v -56.54105 c 0,-1.59473 2.20585,-2.9003 4.90086,-2.9003 z m 14.69804,0 c 2.69501,0 4.90086,1.30557 4.90086,2.9003 v 56.54105 c 0,1.59473 -2.20585,2.89759 -4.90086,2.89759 -2.69502,0 -4.89633,-1.30286 -4.89633,-2.89759 v -56.54105 c 0,-1.59473 2.20131,-2.9003 4.89633,-2.9003 z m 14.70257,0 c 2.69501,0 4.90086,1.30557 4.90086,2.9003 v 56.54105 c 0,1.59473 -2.20585,2.89759 -4.90086,2.89759 -2.69501,0 -4.90085,-1.30286 -4.90085,-2.89759 v -56.54105 c 0,-1.59473 2.20584,-2.9003 4.90085,-2.9003 z m 14.69804,0 c 2.69501,0 4.90086,1.30557 4.90086,2.9003 v 56.54105 c 0,1.59473 -2.20585,2.89759 -4.90086,2.89759 -2.695,0 -4.90085,-1.30286 -4.90085,-2.89759 v -56.54105 c 0,-1.59473 2.20585,-2.9003 4.90085,-2.9003 z m 14.70258,0 c 2.695,0 4.89631,1.30557 4.89631,2.9003 v 56.54105 c 0,1.59473 -2.20131,2.89759 -4.89631,2.89759 -2.69501,0 -4.90086,-1.30286 -4.90086,-2.89759 v -56.54105 c 0,-1.59473 2.20585,-2.9003 4.90086,-2.9003 z m 14.69804,0 c 2.695,0 4.90085,1.30557 4.90085,2.9003 v 56.54105 c 0,1.59473 -2.20585,2.89759 -4.90085,2.89759 -2.69502,0 -4.90087,-1.30286 -4.90087,-2.89759 v -56.54105 c 0,-1.59473 2.20585,-2.9003 4.90087,-2.9003 z m 14.70257,0 c 2.695,0 4.89632,1.30557 4.89632,2.9003 v 4.34911 5.79789 36.24433 5.80061 4.34911 c 0,1.59473 -2.20132,2.89759 -4.89632,2.89759 -2.69501,0 -4.90086,-1.30286 -4.90086,-2.89759 v -56.54105 c 0,-1.59473 2.20585,-2.9003 4.90086,-2.9003 z"
         style="fill:#a7b1b6;fill-opacity:1;stroke-width:1.88467"
         id="path144-5" />
      <path
         d="m 656.14872,363.66382 c -0.42764,-0.2676 -0.94123,-0.11935 -1.24064,0.35991 -2.89818,4.63686 -9.48962,12.85882 -8.39941,23.36704 1.24064,11.95904 6.85935,18.12317 5.72902,25.8491 -0.16117,1.09929 0.2593,2.20513 1.02861,2.70491 0.76932,0.5007 1.69979,0.27505 2.28,-0.55199 4.37735,-6.2378 8.86501,-15.13389 6.55349,-23.25421 -3.49629,-12.28352 -6.92955,-17.7353 -5.39235,-26.9885 0.0996,-0.60327 -0.13108,-1.21772 -0.55872,-1.48626 z"
         id="path73-2"
         inkscape:connector-curvature="0"
         style="fill:#cad3db;fill-opacity:1;stroke-width:0.817246" />
      <path
         d="m 686.88286,364.06226 c -0.42764,-0.2676 -0.94123,-0.11935 -1.24064,0.35991 -2.89818,4.63686 -9.48962,12.85882 -8.39941,23.36704 1.24064,11.95904 6.85935,18.12317 5.72902,25.8491 -0.16117,1.09929 0.2593,2.20513 1.02861,2.70491 0.76932,0.5007 1.69979,0.27505 2.28,-0.55199 4.37735,-6.2378 8.86501,-15.13389 6.55349,-23.25421 -3.49629,-12.28352 -6.92955,-17.7353 -5.39235,-26.9885 0.0996,-0.60327 -0.13108,-1.21772 -0.55872,-1.48626 z"
         id="path73-2-1"
         inkscape:connector-curvature="0"
         style="fill:#cad3db;fill-opacity:1;stroke-width:0.817246" />
      <path
         d="m 717.16496,364.06226 c -0.42764,-0.2676 -0.94123,-0.11935 -1.24064,0.35991 -2.89818,4.63686 -9.48962,12.85882 -8.39941,23.36704 1.24064,11.95904 6.85935,18.12317 5.72902,25.8491 -0.16117,1.09929 0.2593,2.20513 1.02861,2.70491 0.76932,0.5007 1.69979,0.27505 2.28,-0.55199 4.37735,-6.2378 8.86501,-15.13389 6.55349,-23.25421 -3.49629,-12.28352 -6.92955,-17.7353 -5.39235,-26.9885 0.0996,-0.60327 -0.13108,-1.21772 -0.55872,-1.48626 z"
         id="path73-2-1-8"
         inkscape:connector-curvature="0"
         style="fill:#cad3db;fill-opacity:1;stroke-width:0.817246" />
      <path
         d="m 745.05636,363.26536 c -0.42764,-0.2676 -0.94123,-0.11935 -1.24064,0.35991 -2.89818,4.63686 -9.48961,12.85882 -8.3994,23.36704 1.24063,11.95904 6.85934,18.12317 5.72901,25.8491 -0.16116,1.09929 0.25931,2.20513 1.02861,2.70491 0.76932,0.5007 1.69979,0.27505 2.28,-0.55199 4.37735,-6.2378 8.86501,-15.13389 6.55349,-23.25421 -3.49629,-12.28352 -6.92955,-17.7353 -5.39235,-26.9885 0.0996,-0.60327 -0.13108,-1.21772 -0.55872,-1.48626 z"
         id="path73-2-1-8-3"
         inkscape:connector-curvature="0"
         style="fill:#cad3db;fill-opacity:1;stroke-width:0.817246" />
    </g>
  </g>
  <g
     transform="matrix(-1.1365695,0,0,1.1365695,204.41591,4.223308)"
     id="g3193">
    <path
       style="fill:#cad3db;fill-opacity:1"
       inkscape:connector-curvature="0"
       id="path89"
       d="M 12.76,35.094 6.206,47.805 c -1.311,4.448 2.946,7.977 6.581,7.977 3.635,0 8.102,-3.465 6.581,-7.977 z" />
    <path
       inkscape:connector-curvature="0"
       id="path91"
       d="M 49.254,20.05 C 49,19.605 48.719,19.169 48.391,18.751 v -0.01 c -0.04,-0.046 -0.083,-0.09 -0.124,-0.136 -2.04,-2.263 -4.837,-4.012 -6.594,-4.98 -6.548,-3.366 -14.9,-4.951 -18.053,-4.951 -8.504,0 -15.423,6.73 -15.423,15.002 0,0.168 0.033,0.327 0.049,0.49 h 9.901 c 0.016,-0.164 0.049,-0.322 0.049,-0.49 0,-2.758 2.433,-5.002 5.423,-5.002 4.79,0 14.893,3.643 16.771,5.975 v 24.518 c 0,2.763 2.237,5 5,5 2.763,0 5,-2.237 5,-5 V 24.14 c 10e-4,-1.476 -0.418,-2.836 -1.136,-4.09 z"
       style="fill:#a7b1b6;fill-opacity:1" />
    <path
       inkscape:connector-curvature="0"
       d="m 5.391,31.167 h 15 v -2 h -8 v -1 h 8 v -3 h -15 z"
       id="polygon93"
       style="fill:#cad3db;fill-opacity:1" />
    <path
       inkscape:connector-curvature="0"
       id="path95"
       d="m 42.518,7.54 0.936,0.328 C 43.413,8.007 43.392,8.152 43.392,8.3 v 5.147 c 1.533,0.923 3.407,2.218 5,3.814 V 9.599 8.3 8.038 L 48.365,8.026 C 48.23,6.98 47.35,6.167 46.277,6.167 h -0.349 c -0.384,0 -0.791,0.114 -1.168,0.299 L 43.646,5.984 29.823,0 c 0,0 -1.68,0.993 -1.257,2.648 z"
       style="fill:#cad3db;fill-opacity:1" />
  </g>
</svg>
