<?xml version="1.0" encoding="UTF-8" standalone="no"?>
<svg
   data-name="Layer 1"
   viewBox="0 0 378.44 325.79"
   version="1.1"
   id="svg130"
   sodipodi:docname="feature4.svg"
   inkscape:version="1.1.2 (b8e25be8, 2022-02-05)"
   xmlns:inkscape="http://www.inkscape.org/namespaces/inkscape"
   xmlns:sodipodi="http://sodipodi.sourceforge.net/DTD/sodipodi-0.dtd"
   xmlns:xlink="http://www.w3.org/1999/xlink"
   xmlns="http://www.w3.org/2000/svg"
   xmlns:svg="http://www.w3.org/2000/svg">
  <sodipodi:namedview
     id="namedview132"
     pagecolor="#ffffff"
     bordercolor="#666666"
     borderopacity="1.0"
     inkscape:pageshadow="2"
     inkscape:pageopacity="0.0"
     inkscape:pagecheckerboard="0"
     showgrid="false"
     inkscape:zoom="0.63990529"
     inkscape:cx="-45.319207"
     inkscape:cy="436.00202"
     inkscape:window-width="1383"
     inkscape:window-height="916"
     inkscape:window-x="74"
     inkscape:window-y="38"
     inkscape:window-maximized="0"
     inkscape:current-layer="svg130" />
  <defs
     id="defs32">
    <linearGradient
       id="a"
       x1="191.25"
       y1="158.09"
       x2="192.05"
       y2="476.39"
       gradientUnits="userSpaceOnUse">
      <stop
         offset=".01"
         id="stop9" />
      <stop
         offset=".08"
         stop-opacity=".69"
         id="stop11" />
      <stop
         offset=".21"
         stop-opacity=".32"
         id="stop13" />
      <stop
         offset="1"
         stop-opacity="0"
         id="stop15" />
    </linearGradient>
    <linearGradient
       id="c"
       x1="153.7"
       y1="76.33"
       x2="494.53"
       y2="317.88"
       xlink:href="#a" />
    <linearGradient
       id="b"
       x1="-794.43"
       y1="3080.09"
       x2="-800.45"
       y2="2521.18"
       gradientTransform="matrix(1 -.09 -.09 -1 1238.09 3066.63)"
       gradientUnits="userSpaceOnUse">
      <stop
         offset=".01"
         id="stop19" />
      <stop
         offset=".13"
         stop-opacity=".69"
         id="stop21" />
      <stop
         offset=".25"
         stop-opacity=".32"
         id="stop23" />
      <stop
         offset="1"
         stop-opacity="0"
         id="stop25" />
    </linearGradient>
    <linearGradient
       id="d"
       x1="153.04"
       y1="153.04"
       x2="254.24"
       y2="445.05"
       xlink:href="#a" />
    <linearGradient
       id="e"
       x1="-830.51"
       y1="2995.42"
       x2="-626.59"
       y2="2515.18"
       gradientTransform="matrix(1 -.09 -.09 -1 1233.14 3058.69)"
       xlink:href="#b" />
    <linearGradient
       id="f"
       x1="-380.13"
       y1="3379.83"
       x2="-386.16"
       y2="2820.37"
       gradientTransform="scale(1 -1) rotate(21.2 9102.062 2922.28)"
       xlink:href="#b" />
    <linearGradient
       id="g"
       x1="-416.66"
       y1="3296.14"
       x2="-210.79"
       y2="2811.34"
       gradientTransform="scale(1 -1) rotate(21.2 9094.739 2897.204)"
       xlink:href="#b" />
    <linearGradient
       inkscape:collect="always"
       xlink:href="#a"
       id="linearGradient3398"
       gradientUnits="userSpaceOnUse"
       x1="191.25"
       y1="158.09"
       x2="192.05"
       y2="476.39"
       gradientTransform="matrix(1.1231849,0,0,0.58852898,-24.244513,66.60755)" />
  </defs>
  <path
     d="M 373.5,201.92332 A 116.22,92.372073 0 0 0 355.9,174.47875 C 343.39,161.11015 326.61,150.07033 317.57,135.0406 288.09,86.048897 247.94,38.758086 172.65,38.710398 c -69.93,0 -91.45,42.680949 -95.57,48.951949 -10,15.220493 -8.87,33.445343 -14.89,49.937513 -8.39,22.96188 -29.91,41.0834 -47.56,60.40508 -6.26,6.8671 -12.23,14.25877 -14,22.62011 -1.08,5.11853 -0.53,10.33244 0.07,15.53046 1.47,12.64532 9,19.98931 15.77,30.70326 a 70.55,56.073393 0 0 0 30.32,24.51969 c 23.44,9.60918 57.17,6.11204 82.37,2.60696 30.55,-4.24425 59.59,-13.99649 91.13,-12.89172 a 332.78,264.49474 0 0 1 56.48,5.93719 c 12.56,2.20955 21.88,7.08964 35.15,5.65105 27.43,-2.98051 51.77,-20.61721 61.14,-40.87675 7.37,-15.93581 6.85,-33.56455 0.44,-49.88187 z"
     fill="#4fc3f7"
     opacity="0.18"
     style="isolation:isolate;fill:#ff6600;stroke-width:0.891518"
     id="path34" />
  <path
     d="m 71.945043,244.51398 -0.17971,0.0942 c -10.917357,5.79701 15.623502,9.32819 22.463698,9.9226 16.915169,1.46544 37.649159,-1.33007 54.766499,-1.90095 q 58.40561,-1.92449 117.09202,-1.24768 c 18.95937,0.22364 38.82851,0.55322 55.82229,-3.86663 2.24637,-0.58853 4.57137,-1.37716 5.0431,-2.6425 0.88732,-2.35412 -5.08802,-4.21975 -4.31303,-6.55621 3.87499,-2.06574 10.16483,-1.87152 15.58981,-2.43063 5.42498,-0.5591 11.33294,-3.30753 8.78331,-5.88529 -0.94348,-0.9593 -2.84166,-1.54194 -4.67245,-2.04219 -20.27349,-5.55572 -40.3448,-7.49786 -63.21285,-8.27472 -51.11614,-1.72439 -100.07577,1.34185 -150.6191,4.64938 -29.932873,1.9598 -59.663578,-1.17706 -88.630517,2.65426 -7.379324,0.98285 -7.71628,6.47382 -0.494201,7.71562 a 126.97605,66.533201 0 0 0 27.776363,2.97796 7.6938166,4.0314235 0 0 1 4.784768,6.83282 z"
     fill="url(#a)"
     id="path36"
     style="fill:url(#linearGradient3398);stroke-width:0.813036" />
  <path
     d="m 234.02958,239.12319 h -60.52086 v -82.02352 l 16.18997,-7.7522 h 27.11068 l 17.22021,7.7522 v 82.02352"
     style="fill:#ff6600;fill-opacity:1;fill-rule:nonzero;stroke:none;stroke-width:0.01164"
     id="path38" />
  <path
     d="m 189.69869,149.34747 -16.18997,7.7522 h 60.52086 l -17.22021,-7.7522 h -27.11068"
     style="fill:#d45500;fill-opacity:1;fill-rule:nonzero;stroke:none;stroke-width:0.01164"
     id="path40" />
  <path
     d="m 220.24783,154.21417 h -33.31592 l 5.98651,-3.12655 h 21.34183 l 5.98758,3.12655"
     style="fill:#ff9955;fill-opacity:1;fill-rule:nonzero;stroke:none;stroke-width:0.01164"
     id="path42" />
  <path
     d="m 215.14262,153.0001 h -22.86673 c -0.19332,0 -0.34921,-0.15602 -0.34921,-0.3492 0,-0.19319 0.15589,-0.34921 0.34921,-0.34921 h 22.86673 c 0.19199,0 0.34921,0.15602 0.34921,0.34921 0,0.19318 -0.15722,0.3492 -0.34921,0.3492"
     style="fill:#993341;fill-opacity:1;fill-rule:nonzero;stroke:none;stroke-width:0.01164"
     id="path44" />
  <path
     d="m 217.93614,182.27822 h -28.93346 c -1.27115,0 -2.31061,-1.03947 -2.31061,-2.31062 v -7.77425 c 0,-1.27116 1.03946,-2.31182 2.31061,-2.31182 h 28.93346 c 1.27115,0 2.31169,1.04066 2.31169,2.31182 v 7.77425 c 0,1.27115 -1.04054,2.31062 -2.31169,2.31062"
     style="fill:#aa4400;fill-opacity:1;fill-rule:nonzero;stroke:none;stroke-width:0.01164"
     id="path46" />
  <path
     d="m 276.60868,108.89155 c 0.83813,-3.15676 3.1335,-10.773923 -0.51792,-12.443083 -3.65156,-1.66929 -5.47781,-4.12055 -9.12923,-2.86932 -3.65156,1.25244 -2.92173,4.12176 -4.22537,5.6861 -1.30485,1.565683 0.88692,6.677843 2.97279,8.504223 2.08709,1.82517 10.89973,1.12208 10.89973,1.12208"
     style="fill:#28170b;fill-opacity:1;fill-rule:nonzero;stroke:none;stroke-width:0.01164"
     id="path48" />
  <path
     d="m 229.951,133.1376 c 0,0 -5.03662,-1.62611 -6.76166,-2.50715 -1.72624,-0.88117 -12.33492,4.61522 -9.69034,5.32405 2.64351,0.70884 7.97105,-1.40952 7.97105,-1.40952 l -2.56424,1.22917 c 0,0 2.30006,0.78558 3.21492,0.57729 0.91486,-0.20723 3.4291,-0.80897 3.4291,-0.80897 l 6.82115,2.71329 c 0,0 -0.2841,-4.02282 -0.4075,-4.09033 -0.12433,-0.0682 -2.01248,-1.02783 -2.01248,-1.02783"
     style="fill:#a05a2c;fill-opacity:1;fill-rule:nonzero;stroke:none;stroke-width:0.01164"
     id="path50" />
  <path
     d="m 231.26975,132.62087 -3.07414,-0.13396 -1.31995,5.96204 5.16697,0.97315 -0.77288,-6.80123"
     style="fill:#f2e5de;fill-opacity:1;fill-rule:nonzero;stroke:none;stroke-width:0.01164"
     id="path52" />
  <path
     d="m 280.11692,121.01805 c 4.82713,6.78265 1.88695,11.96834 -4.13325,16.36697 -6.0202,4.39877 -20.19193,5.77113 -26.18419,6.03544 -5.99226,0.26538 -20.97404,-4.33366 -20.97404,-4.33366 l 0.92422,-6.59989 c 0,0 14.18671,1.35498 19.67962,0.41218 5.49292,-0.94174 24.96892,-11.88104 24.96892,-11.88104 h 5.71872"
     style="fill:#58556e;fill-opacity:1;fill-rule:nonzero;stroke:none;stroke-width:0.01164"
     id="path54" />
  <path
     d="m 268.86117,124.04098 c -1.71929,0.91955 -3.70504,1.96489 -5.75375,3.00663 -1.98922,5.17633 -2.54792,10.48407 -12.19869,14.00528 -2.23949,0.8182 -4.36495,1.38746 -6.32622,1.77504 2.01595,0.41084 3.85049,0.65296 5.21697,0.59253 4.34288,-0.19212 14.10649,0.36431 20.82631,-1.72277 -0.20255,-5.1647 -1.59363,-13.3324 -1.76462,-17.65671"
     style="fill:#3a384d;fill-opacity:1;fill-rule:nonzero;stroke:none;stroke-width:0.01164"
     id="path56" />
  <path
     d="m 274.5089,102.43485 3.66306,11.89494 -7.54617,9.28405 2.2185,-7.97346 -2.2185,-8.15728 3.88311,-5.04825"
     style="fill:#a05a2c;fill-opacity:1;fill-rule:nonzero;stroke:none;stroke-width:0.01164"
     id="path58" />
  <path
     d="m 274.5089,102.43485 -3.88311,5.04825 2.20566,8.11075 c 1.37236,-2.36984 2.51437,-5.22058 3.15222,-8.37146 l -1.47477,-4.78754"
     style="fill:#784421;fill-opacity:1;fill-rule:nonzero;stroke:none;stroke-width:0.01164"
     id="path60" />
  <path
     d="m 274.63457,107.2375 c -1.26179,3.92737 -4.65372,6.34962 -7.57652,5.41029 -2.92159,-0.93825 -4.26828,-4.883 -3.00662,-8.81037 1.26179,-3.927233 4.65372,-6.349623 7.57652,-5.411363 2.9228,0.93933 4.26842,4.884073 3.00662,8.811443"
     style="fill:#a05a2c;fill-opacity:1;fill-rule:nonzero;stroke:none;stroke-width:0.01164"
     id="path62" />
  <path
     d="m 271.03195,119.1545 c 0,0 -2.23134,1.33159 -2.22559,2.36757 0,1.03479 0,1.62732 0,1.62732 0,0 -1.91703,2.93563 -3.39648,6.72088 -1.47944,3.78418 -1.40257,5.70829 -1.40257,5.70829 l 9.38057,-14.27641 -2.35593,-2.14765"
     style="fill:#f37168;fill-opacity:1;fill-rule:nonzero;stroke:none;stroke-width:0.01164"
     id="path64" />
  <path
     d="m 284.23641,231.71324 c -0.0749,2.95997 -3.33832,5.04932 -4.88648,5.83505 -4.85627,2.46543 -5.69666,4.00651 -0.3702,3.92737 4.02978,-0.0588 6.80592,-1.63306 11.17099,-1.92879 2.76799,-0.18851 0.77395,-3.26387 0.92182,-5.03891 0.14786,-1.77625 -1.10925,-4.27417 -1.10925,-4.27417 l -5.72688,1.47945"
     style="fill:#3a384d;fill-opacity:1;fill-rule:nonzero;stroke:none;stroke-width:0.01164"
     id="path66" />
  <path
     d="m 260.93197,230.23379 c 0,0 -0.98131,1.35017 -3.34888,3.3918 -2.36637,2.04283 -10.71229,2.11155 -6.26927,4.2068 2.69819,1.27342 7.6673,0.35027 10.63782,0.77756 2.97173,0.42835 5.56043,0.0134 5.78277,-0.77756 0.22233,-0.79161 -0.60884,-6.20297 -0.60884,-6.20297 l -6.1936,-1.39563"
     style="fill:#3a384d;fill-opacity:1;fill-rule:nonzero;stroke:none;stroke-width:0.01164"
     id="path68" />
  <path
     d="m 265.28769,151.63937 c 1.16513,14.01345 -2.77507,45.64042 -2.80181,52.79781 -0.0281,7.15752 -4.07162,27.97447 -4.07162,27.97447 0,0 7.80808,3.1684 9.639,3.32428 1.83106,0.15482 5.71057,-18.15712 6.49281,-27.64492 0.78344,-9.4878 5.1786,-28.98118 5.1786,-28.98118 l -1.69469,-28.88707 -12.74229,1.41663"
     style="fill:#58556e;fill-opacity:1;fill-rule:nonzero;stroke:none;stroke-width:0.01164"
     id="path70" />
  <path
     d="m 273.49738,216.20297 c 0.4841,-2.96478 0.85777,-5.80027 1.04869,-8.11196 0.78344,-9.4878 5.1786,-28.98118 5.1786,-28.98118 l -0.56566,-9.63687 -14.03429,-0.20014 c -0.29105,5.15761 -0.71593,10.55868 -1.1396,15.58006 5.3905,11.75296 8.20394,24.13561 9.51226,31.35009"
     style="fill:#3a384d;fill-opacity:1;fill-rule:nonzero;stroke:none;stroke-width:0.01164"
     id="path72" />
  <path
     d="m 265.78703,156.33147 c 5.42888,29.41074 9.42483,41.10661 13.08682,53.75691 3.66198,12.65045 2.82854,25.64755 2.82854,25.64755 l 10.15359,1.29562 c 0,0 3.96921,-23.02275 0.0655,-34.59175 -2.39551,-7.09803 -0.81018,-16.7139 -1.6959,-27.25855 -0.99869,-11.89494 -1.86475,-24.05512 -1.86475,-24.05512 l -22.57341,5.20534"
     style="fill:#58556e;fill-opacity:1;fill-rule:nonzero;stroke:none;stroke-width:0.01164"
     id="path74" />
  <path
     d="m 286.8961,166.59909 -17.54722,7.5788 c 0.0789,0.36324 -0.0775,2.15112 0,2.50728 8.59486,0.71579 14.0331,-0.0976 21.07297,1.60391 -0.16176,-2.06248 -0.48998,-6.9257 -0.62621,-9.01626 l -2.89954,-2.67373"
     style="fill:#3a384d;fill-opacity:1;fill-rule:nonzero;stroke:none;stroke-width:0.01164"
     id="path76" />
  <path
     d="m 279.45113,115.4135 c 7.32398,6.92811 9.98835,14.25195 9.74155,18.27585 -0.49934,8.14685 1.05109,39.47354 1.05109,39.47354 0,0 -4.30331,0.9789 -11.51311,2.29778 -7.2086,1.31755 -14.16465,-0.61004 -14.16465,-0.61004 0,0 -1.21995,-22.38009 -1.16286,-36.43537 0.0334,-8.56825 16.04798,-23.00176 16.04798,-23.00176"
     style="fill:#58556e;fill-opacity:1;fill-rule:nonzero;stroke:none;stroke-width:0.01164"
     id="path78" />
  <path
     d="m 286.62256,173.93109 c 0.18971,-3.70383 1.51555,-29.77973 1.30953,-30.19298 -0.22233,-0.44346 -8.65663,-20.12427 -8.65663,-20.12427 -4.51281,6.14239 -4.79811,18.94055 -4.72939,25.82094 0.0615,6.19948 1.92879,23.02849 2.29778,26.3005 0.62395,-0.0695 1.25471,-0.15936 1.88681,-0.27461 3.17775,-0.58089 5.87127,-1.11513 7.8919,-1.52958"
     style="fill:#3a384d;fill-opacity:1;fill-rule:nonzero;stroke:none;stroke-width:0.01164"
     id="path80" />
  <path
     d="m 278.87385,113.53124 -1.40498,-2.73657 -6.84308,5.5488 -0.4075,7.59978 8.65556,-10.41201"
     style="fill:#f2e5de;fill-opacity:1;fill-rule:nonzero;stroke:none;stroke-width:0.01164"
     id="path82" />
  <path
     d="m 277.68999,119.67256 c 0,0 2.79245,-1.28051 5.36257,-0.38998 -1.05578,-1.29321 -2.02412,-2.57707 -3.60143,-4.06935 0,0 -16.01429,14.43364 -16.04798,23.00175 -0.0134,2.09404 0.0414,4.21602 0.13503,6.31232 0.0535,-4.29275 -0.56686,-7.39483 3.64675,-12.9983 3.73525,-4.96683 11.68892,-9.04541 11.68892,-9.04541 l -1.18386,-2.81103"
     style="fill:#3a384d;fill-opacity:1;fill-rule:nonzero;stroke:none;stroke-width:0.01164"
     id="path84" />
  <path
     d="m 278.94831,112.85034 2.01369,3.84702 -4.97833,3.56653 1.33733,2.2197 c 0,0 -6.00148,3.81667 -8.51464,5.77113 -4.21013,3.27428 -5.69078,11.02299 -5.69078,11.02299 0,0 0.59252,-7.74871 5.69078,-14.1752 4.66308,-5.87702 10.14195,-12.25217 10.14195,-12.25217"
     style="fill:#58556e;fill-opacity:1;fill-rule:nonzero;stroke:none;stroke-width:0.01164"
     id="path86" />
  <path
     d="m 272.05857,173.55983 21.34785,2.5899 -1.44576,14.13096 -20.30357,-2.0812 0.40148,-14.63966"
     style="fill:#bdccd4;fill-opacity:1;fill-rule:nonzero;stroke:none;stroke-width:0.01164"
     id="path88" />
  <path
     d="m 284.27598,164.41776 -2.14524,7.86864 -3.25569,2.19765 2.63643,0.42487 c 0,0 -0.47729,4.67926 -1.37236,6.80471 -0.89401,2.12666 0.0668,2.8355 3.6934,0.35496 3.62469,-2.48041 4.63033,-3.68632 4.38594,-6.59281 -0.24332,-2.90542 -0.90911,-3.25917 -0.53892,-5.66979 0.37006,-2.41075 -3.47695,-5.8841 -3.47695,-5.8841 l 0.0735,0.49587"
     style="fill:#a05a2c;fill-opacity:1;fill-rule:nonzero;stroke:none;stroke-width:0.01164"
     id="path90" />
  <path
     d="m 281.98515,168.3859 -0.73905,4.04021 7.01661,1.13372 1.16166,-5.17393 h -7.43922"
     style="fill:#f2e5de;fill-opacity:1;fill-rule:nonzero;stroke:none;stroke-width:0.01164"
     id="path92" />
  <path
     d="m 283.91862,121.01805 c 2.64458,1.08719 6.01084,10.72981 10.93342,27.90695 1.1896,4.15198 -5.42767,22.93532 -5.42767,22.93532 0,0 -8.45301,-0.53892 -8.55783,-1.89497 -0.0602,-0.77756 3.71787,-15.68487 3.21853,-17.12006 -0.49934,-1.4352 -3.41519,-5.81418 -5.91311,-15.59062 -2.49913,-9.77523 0.92769,-18.21648 5.74666,-16.23662"
     style="fill:#58556e;fill-opacity:1;fill-rule:nonzero;stroke:none;stroke-width:0.01164"
     id="path94" />
  <path
     d="m 264.26106,97.909197 c -2.62025,6.573163 3.07053,5.894533 5.46497,3.861063 2.39431,-2.034683 2.70394,-0.27715 2.65622,2.13815 -0.0455,2.26757 0.86018,0.61004 0.65068,3.16612 -0.20843,2.55621 -0.37247,2.6772 0.46672,1.79028 0.83919,-0.88705 1.1011,-4.12175 1.1011,-4.12175 0,0 -0.19666,4.18686 0.99989,4.47323 1.19669,0.28517 1.00804,-0.32474 1.00804,-0.32474 l 0.27006,-7.01768 -5.27405,-5.894533 c 0,0 -6.76755,0.0521 -6.7745,0.2607 -0.0134,0.20843 -0.56913,1.66916 -0.56913,1.66916"
     style="fill:#28170b;fill-opacity:1;fill-rule:nonzero;stroke:none;stroke-width:0.01164"
     id="path96" />
  <path
     d="m 274.60075,104.74306 c 0.81138,-1.77398 2.60153,-0.93813 2.12318,1.14882 -0.47729,2.08588 -2.43856,2.27452 -2.43856,2.27452 l 0.31538,-3.42334"
     style="fill:#a05a2c;fill-opacity:1;fill-rule:nonzero;stroke:none;stroke-width:0.01164"
     id="path98" />
  <path
     d="m 224.65943,140.16236 c -0.0134,-2.25233 -7.83254,-11.30709 -8.56705,-11.68303 -0.73331,-0.37595 -12.98548,7.62772 -16.88263,11.36176 -3.89595,3.73298 -4.47899,4.33246 -4.47899,4.33246 0,0 3.86908,4.77124 7.01421,8.47735 l 10.06388,0.22701 c 2.18481,-2.55381 4.66188,-5.32767 6.24948,-6.72557 3.39193,-2.98456 6.6011,-5.98998 6.6011,-5.98998"
     style="fill:#dbe5eb;fill-opacity:1;fill-rule:nonzero;stroke:none;stroke-width:0.01164"
     id="path100" />
  <path
     d="m 207.10165,151.76866 c -0.0802,0 -0.15949,-0.0321 -0.21765,-0.0976 l -5.252,-5.92943 c -0.10562,-0.12032 -0.0949,-0.30375 0.0254,-0.41084 0.12033,-0.10695 0.30375,-0.0949 0.41084,0.0241 l 5.2508,5.92943 c 0.10695,0.12166 0.0949,0.30495 -0.0241,0.41084 -0.0562,0.0495 -0.12433,0.0735 -0.19318,0.0735"
     style="fill:#3e6bab;fill-opacity:1;fill-rule:nonzero;stroke:none;stroke-width:0.01164"
     id="path102" />
  <path
     d="m 208.02467,151.09578 c -0.0802,0 -0.16177,-0.0334 -0.21872,-0.10027 l -5.04598,-5.79667 c -0.10428,-0.12166 -0.0923,-0.30495 0.0294,-0.40977 0.12166,-0.10561 0.30495,-0.0936 0.41084,0.0281 l 5.04477,5.7956 c 0.10429,0.12166 0.0936,0.30616 -0.0294,0.41084 -0.0548,0.0495 -0.12166,0.0722 -0.19091,0.0722"
     style="fill:#3e6bab;fill-opacity:1;fill-rule:nonzero;stroke:none;stroke-width:0.01164"
     id="path104" />
  <path
     d="m 211.59935,148.13113 c -0.0802,0 -0.15949,-0.0321 -0.21765,-0.0976 l -4.7572,-5.33341 c -0.10695,-0.12033 -0.0963,-0.30375 0.0227,-0.41084 0.12032,-0.10696 0.30375,-0.0963 0.41084,0.0227 l 4.75733,5.33342 c 0.10696,0.12032 0.0963,0.30388 -0.0227,0.41097 -0.0548,0.0495 -0.12433,0.0749 -0.19318,0.0749"
     style="fill:#3e6bab;fill-opacity:1;fill-rule:nonzero;stroke:none;stroke-width:0.01164"
     id="path106" />
  <path
     d="m 212.11501,147.33259 c -0.0802,0 -0.16057,-0.0334 -0.21765,-0.0976 l -4.74678,-5.35094 c -0.10695,-0.12166 -0.0949,-0.30495 0.0241,-0.41084 0.12032,-0.10695 0.30375,-0.0949 0.41084,0.0241 l 4.74677,5.35094 c 0.10562,0.12032 0.0949,0.30388 -0.0254,0.41097 -0.0548,0.0495 -0.123,0.0735 -0.19212,0.0735"
     style="fill:#3e6bab;fill-opacity:1;fill-rule:nonzero;stroke:none;stroke-width:0.01164"
     id="path108" />
  <path
     d="m 215.48942,144.97905 c -0.0829,0 -0.16404,-0.0334 -0.22113,-0.1016 l -4.51401,-5.25775 c -0.10428,-0.12166 -0.0909,-0.30616 0.0321,-0.40977 0.12166,-0.10562 0.30495,-0.0909 0.40977,0.0308 l 4.51401,5.25775 c 0.10428,0.12166 0.0909,0.30615 -0.0321,0.41084 -0.0548,0.0468 -0.12166,0.0695 -0.18864,0.0695"
     style="fill:#3e6bab;fill-opacity:1;fill-rule:nonzero;stroke:none;stroke-width:0.01164"
     id="path110" />
  <path
     d="m 216.02259,144.15256 c -0.11765,0 -0.22581,-0.0722 -0.27006,-0.18276 -0.20375,-0.33877 -2.65154,-3.16371 -4.16253,-4.883 -0.10562,-0.12033 -0.0949,-0.30496 0.0267,-0.41084 0.12166,-0.10562 0.30496,-0.0936 0.41084,0.0267 4.21481,4.79691 4.26027,5.00761 4.28005,5.09718 0.0334,0.15709 -0.0668,0.31191 -0.22353,0.34573 -0.0214,0 -0.0414,0.0134 -0.0615,0.0134"
     style="fill:#3e6bab;fill-opacity:1;fill-rule:nonzero;stroke:none;stroke-width:0.01164"
     id="path112" />
  <path
     d="m 204.18941,142.27391 c -0.0374,0 -0.0762,0 -0.1123,-0.0187 -0.18276,-0.0628 -0.27942,-0.26191 -0.21645,-0.44453 l 0.86714,-2.51437 -1.23038,0.20255 c -0.18971,0.0321 -0.37006,-0.0976 -0.40161,-0.28744 -0.0321,-0.19092 0.0976,-0.3702 0.28757,-0.40162 l 1.80887,-0.2968 c 0.12166,-0.0214 0.24332,0.0241 0.32353,0.11899 0.0789,0.0949 0.10295,0.22233 0.0628,0.33878 l -1.05805,3.06825 c -0.0495,0.14439 -0.18503,0.23517 -0.33049,0.23517"
     style="fill:#d54a41;fill-opacity:1;fill-rule:nonzero;stroke:none;stroke-width:0.01164"
     id="path114" />
  <path
     d="m 224.65943,135.75436 c -4.64196,1.85887 -9.45277,-0.15828 -6.96996,-0.39118 2.48269,-0.23276 4.50118,-1.94042 4.50118,-1.94042 l 2.46878,2.3316"
     style="fill:#a05a2c;fill-opacity:1;fill-rule:nonzero;stroke:none;stroke-width:0.01164"
     id="path116" />
  <path
     d="m 123.3043,231.17432 c 0,0 0.94628,3.6537 4.16467,4.57685 3.21973,0.92302 6.35778,2.71439 1.83454,2.76907 -4.96095,0.0602 -7.8046,-0.1734 -9.86722,-0.51913 -2.06141,-0.3468 -0.71125,-3.98086 -0.3829,-5.71179 0.32702,-1.73079 4.25091,-1.115 4.25091,-1.115"
     style="fill:#0f2d5c;fill-opacity:1;fill-rule:nonzero;stroke:none;stroke-width:0.01164"
     id="path156" />
  <path
     d="m 97.065426,228.20487 c 0,0 -0.68919,7.2983 1.0662,7.92452 1.75419,0.62742 3.759724,2.13135 1.25364,2.13135 -2.50728,0 -5.60936,0.59239 -6.42061,-2.13135 -0.98946,-3.32094 -3.22762,-3.88191 -2.42934,-5.57206 0.79735,-1.69122 3.20917,-4.8318 3.20917,-4.8318 l 3.32094,2.47934"
     style="fill:#0f2d5c;fill-opacity:1;fill-rule:nonzero;stroke:none;stroke-width:0.01164"
     id="path158" />
  <path
     d="m 130.61063,152.07241 -6.37048,80.64995 c 0,0 -3.31051,1.52958 -5.69546,1.75993 -2.38629,0.23169 -7.31929,-38.64933 -6.90137,-44.86512 0.41793,-6.21687 -4.31147,-25.95839 -3.21492,-32.3568 1.09522,-6.39855 22.18223,-5.18796 22.18223,-5.18796"
     style="fill:#0e3a82;fill-opacity:1;fill-rule:nonzero;stroke:none;stroke-width:0.01164"
     id="path160" />
  <path
     d="m 117.86259,152.49849 c 0.44921,-0.0602 0.90203,-0.11364 1.35605,-0.16191 l 11.00561,4.25906 -2.02999,23.78868 c -5.27527,11.59226 -11.58651,22.53504 -14.75718,29.60861 -1.44335,-8.4121 -1.98815,-17.48438 -1.79376,-20.37576 0.20134,-2.99379 -0.79039,-9.12456 -1.75178,-15.39035 l 7.97105,-21.72833"
     style="fill:#0f2d5c;fill-opacity:1;fill-rule:nonzero;stroke:none;stroke-width:0.01164"
     id="path162" />
  <path
     d="m 127.46897,164.25826 c -6.17608,27.45642 -30.472264,65.77767 -30.446594,65.77767 0.0267,0 -4.53968,-0.78919 -4.77017,-2.86585 -0.23049,-2.07652 2.60621,-27.61938 8.782434,-33.63143 6.17622,-6.01084 6.59869,-34.54856 6.59869,-34.54856 l 19.83564,5.26817"
     style="fill:#0e3a82;fill-opacity:1;fill-rule:nonzero;stroke:none;stroke-width:0.01164"
     id="path164" />
  <path
     d="m 112.90512,123.54752 c -6.94683,6.98747 -11.40376,19.0034 -11.46432,21.9762 -0.0602,2.974 8.01183,8.27961 8.01183,8.27961 l 3.45249,-30.25581"
     style="fill:#89a02c;fill-opacity:1;fill-rule:nonzero;stroke:none;stroke-width:0.01164"
     id="path166" />
  <path
     d="m 121.27658,108.37002 -2.44672,12.17315 6.69067,7.20285 0.89039,-14.76065 -5.13434,-4.61535"
     style="fill:#f09959;fill-opacity:1;fill-rule:nonzero;stroke:none;stroke-width:0.01164"
     id="path168" />
  <path
     d="m 117.97075,117.54818 c 0,0 -3.54782,1.24548 -7.49845,11.27447 -3.95063,10.02791 -5.30427,38.22926 -5.30427,38.22926 0,0 7.59042,6.44508 18.45633,6.44267 6.92463,0 9.0303,-1.55859 9.0303,-1.55859 0,0 0.69253,-26.78233 0,-35.18882 -0.69146,-8.40635 -11.25469,-19.40969 -14.68391,-19.19899"
     style="fill:#abc837;fill-opacity:1;fill-rule:nonzero;stroke:none;stroke-width:0.01164"
     id="path170" />
  <path
     d="m 132.65466,136.74717 c -0.69146,-8.40635 -11.25469,-19.40969 -14.68391,-19.19899 0,0 -1.4713,0.51806 -3.57456,3.56426 3.54675,-1.72625 7.96758,1.28265 12.10097,11.02647 2.06716,4.87364 4.26133,11.88678 6.45309,13.41623 -0.0308,-3.48846 -0.11631,-6.64174 -0.29559,-8.80797"
     style="fill:#89a02c;fill-opacity:1;fill-rule:nonzero;stroke:none;stroke-width:0.01164"
     id="path172" />
  <path
     d="m 123.84549,118.61559 c -1.98695,-2.31637 -2.72493,-5.85376 -2.99847,-8.10729 l 0.38651,-1.92411 0.49814,0.19439 4.67925,4.20679 -0.45736,7.5939 c -0.65309,-0.46565 -1.36541,-1.10003 -2.10807,-1.96368"
     style="fill:#e38540;fill-opacity:1;fill-rule:nonzero;stroke:none;stroke-width:0.01164"
     id="path174" />
  <path
     d="m 122.80495,111.0531 c 0.76821,3.62242 4.10425,5.62447 6.8745,5.03783 2.76919,-0.58785 3.37442,-4.0973 2.60742,-7.72091 -0.76833,-3.62228 -3.08925,-5.52781 -5.85843,-4.93996 -2.76919,0.58664 -4.39182,3.99956 -3.62349,7.62304"
     style="fill:#f09959;fill-opacity:1;fill-rule:nonzero;stroke:none;stroke-width:0.01164"
     id="path176" />
  <path
     d="m 119.03468,114.45666 -2.35822,3.98205 12.49549,9.3422 c 0,0 -0.94053,-4.33005 -1.19307,-5.92247 -0.25148,-1.59348 -8.74634,-7.73708 -8.9442,-7.40178"
     style="fill:#abc837;fill-opacity:1;fill-rule:nonzero;stroke:none;stroke-width:0.01164"
     id="path178" />
  <path
     d="m 132.93408,100.96944 c 4.66522,1.46661 0.85082,7.3471 -0.64721,7.40058 -1.49924,0.0548 -2.04631,-1.34201 -3.27789,-1.02075 -1.23144,0.32247 -2.3931,-1.86595 -3.1462,-1.38747 -0.75202,0.47836 -0.27353,4.92485 0,5.67674 0.27354,0.7531 -0.95684,0.82061 -0.95684,0.82061 0,0 -0.50175,-3.1462 -1.2769,-2.94018 -0.77529,0.20482 -1.3503,2.39311 -2.46544,2.94018 -1.11393,0.54707 -1.11393,0.54707 -1.11393,0.54707 0,0 -0.68437,-4.74784 -1.70993,-5.65695 -1.02663,-0.90911 -0.3829,-4.05424 1.07329,-4.67003 1.45725,-0.61566 1.80886,-3.419743 3.82135,-3.624693 2.01261,-0.20602 3.65503,1.162863 6.32167,0.82061 2.66798,-0.34212 2.07198,0.683303 3.37803,1.094283"
     style="fill:#3a384d;fill-opacity:1;fill-rule:nonzero;stroke:none;stroke-width:0.01164"
     id="path180" />
  <path
     d="m 121.11708,110.2849 c 0.43183,1.01607 1.39215,1.57945 2.14524,1.25939 0.75309,-0.32006 1.01393,-1.40257 0.58196,-2.41877 -0.43182,-1.01621 -1.39214,-1.57959 -2.14523,-1.2606 -0.7531,0.32006 -1.0138,1.40378 -0.58197,2.41998"
     style="fill:#f09959;fill-opacity:1;fill-rule:nonzero;stroke:none;stroke-width:0.01164"
     id="path182" />
  <path
     d="m 115.41814,124.99662 c 0,0 12.87505,14.31946 17.51005,18.74858 0.0628,4.12403 0.0321,8.92896 -0.0294,13.19965 -2.51182,-1.23613 -9.49007,-4.84918 -13.46276,-8.67989 -4.90506,-4.73046 -7.09335,-15.57657 -4.01814,-23.26834"
     style="fill:#89a02c;fill-opacity:1;fill-rule:nonzero;stroke:none;stroke-width:0.01164"
     id="path184" />
  <path
     d="m 153.27134,143.85456 c 0.84975,-5.28689 10.44463,-20.67603 14.06812,-22.45241 1.99858,-0.9789 20.03591,2.06034 20.03591,2.06034 0,0 -20.46186,17.76259 -23.09133,27.28408 -2.34899,8.50542 -2.06035,11.72502 -2.06035,11.72502 l -8.26557,-6.04119 c 0,0 -1.96596,-4.6187 -0.68678,-12.57584"
     style="fill:#dbe5eb;fill-opacity:1;fill-rule:nonzero;stroke:none;stroke-width:0.01164"
     id="path186" />
  <path
     d="m 150.99922,143.73811 c 0,0 3.08002,-3.81319 4.30799,-3.44647 1.22797,0.36779 1.69242,0.42715 2.76919,0.36779 1.07663,-0.0588 1.1535,1.49683 -0.38531,4.29516 -1.5376,2.79819 -5.69198,3.36037 -6.69187,3.31037 -0.99989,-0.0495 0,-4.52685 0,-4.52685"
     style="fill:#f09959;fill-opacity:1;fill-rule:nonzero;stroke:none;stroke-width:0.01164"
     id="path188" />
  <path
     d="m 116.85575,121.85844 c -4.97967,1.32357 -3.35931,13.94713 -0.55416,19.15835 2.01729,3.74568 8.75449,7.56476 12.87036,8.63564 4.11588,1.07208 21.96939,-1.15471 21.96939,-1.15471 0,0 0.65643,-5.88517 -0.58678,-5.88517 -1.24188,0 -15.98274,-0.34105 -19.94393,-3.92148 -3.96106,-3.58043 -7.74177,-18.43186 -13.75488,-16.83263"
     style="fill:#abc837;fill-opacity:1;fill-rule:nonzero;stroke:none;stroke-width:0.01164"
     id="path190" />
  <path
     d="m 153.95812,143.64159 c -1.3257,-0.85323 1.74376,-5.74787 1.74376,-5.74787 h 3.53738 c 0,0 -1.13733,1.33974 -2.80648,2.69124 -1.66916,1.35137 -2.47466,3.05663 -2.47466,3.05663"
     style="fill:#dbe5eb;fill-opacity:1;fill-rule:nonzero;stroke:none;stroke-width:0.01164"
     id="path192" />
  <path
     d="m 178.5301,128.37224 c -0.0187,0 -0.0361,-0.001 -0.0548,0 l -8.42267,-1.59937 c -0.15708,-0.0307 -0.2607,-0.18156 -0.23169,-0.33985 0.0307,-0.15829 0.18397,-0.2619 0.33999,-0.23156 l 8.42266,1.59817 c 0.15829,0.0307 0.2619,0.18263 0.23169,0.34105 -0.0254,0.13958 -0.14786,0.23624 -0.2853,0.23624"
     style="fill:#3e6bab;fill-opacity:1;fill-rule:nonzero;stroke:none;stroke-width:0.01164"
     id="path194" />
  <path
     d="m 174.31877,132.95484 c -0.0334,0 -0.0682,0 -0.10161,-0.0174 l -6.65925,-2.4514 c -0.15014,-0.0562 -0.22808,-0.22353 -0.17233,-0.37367 0.0562,-0.15134 0.22354,-0.22929 0.37367,-0.1722 l 6.65926,2.45019 c 0.15134,0.0562 0.22821,0.22341 0.17233,0.37368 -0.0428,0.11765 -0.15375,0.19078 -0.27247,0.19078"
     style="fill:#3e6bab;fill-opacity:1;fill-rule:nonzero;stroke:none;stroke-width:0.01164"
     id="path196" />
  <path
     d="m 173.09428,134.23415 c -0.0321,0 -0.0668,0 -0.0989,-0.0174 -2.02531,-0.73679 -5.94105,-2.15447 -6.27167,-2.2534 -0.15469,-0.0468 -0.24199,-0.20843 -0.19667,-0.36204 0.0468,-0.15361 0.20843,-0.24212 0.36205,-0.19559 0.42942,0.12834 6.06552,2.17665 6.30536,2.26395 0.15014,0.0548 0.22808,0.22234 0.1734,0.37247 -0.0428,0.11899 -0.15481,0.19212 -0.27353,0.19212"
     style="fill:#3e6bab;fill-opacity:1;fill-rule:nonzero;stroke:none;stroke-width:0.01164"
     id="path198" />
  <path
     d="m 168.29857,139.85968 c -0.0388,0 -0.0762,-0.0134 -0.11364,-0.0227 -2.08815,-0.88572 -5.32874,-2.23014 -5.69773,-2.30474 -0.15829,-0.0321 -0.2607,-0.18503 -0.22821,-0.34212 0.0321,-0.15722 0.18516,-0.25963 0.34225,-0.22821 0.54587,0.10962 5.27406,2.11154 5.81191,2.33963 0.14773,0.0628 0.21645,0.23396 0.15361,0.38182 -0.0468,0.11097 -0.15482,0.17688 -0.26779,0.17688"
     style="fill:#3e6bab;fill-opacity:1;fill-rule:nonzero;stroke:none;stroke-width:0.01164"
     id="path200" />
  <path
     d="m 167.65845,141.05864 c -0.0374,0 -0.0749,-0.0134 -0.1123,-0.0214 l -5.64894,-2.36062 c -0.14773,-0.0615 -0.21765,-0.23169 -0.15588,-0.38063 0.0615,-0.14786 0.23276,-0.21765 0.38062,-0.15602 l 5.6488,2.35942 c 0.14787,0.0628 0.21765,0.23289 0.15602,0.38062 -0.0468,0.11231 -0.15482,0.17929 -0.26886,0.17929"
     style="fill:#3e6bab;fill-opacity:1;fill-rule:nonzero;stroke:none;stroke-width:0.01164"
     id="path202" />
  <path
     d="m 179.84431,126.98705 c -0.0174,0 -0.0361,0 -0.0535,0 l -8.8557,-1.66916 c -0.15842,-0.0307 -0.2619,-0.18169 -0.23169,-0.33998 0.0294,-0.1583 0.18156,-0.26191 0.33985,-0.23156 l 8.85463,1.66916 c 0.15829,0.0307 0.2619,0.18155 0.23276,0.33985 -0.0267,0.1397 -0.14907,0.23743 -0.28637,0.23743"
     style="fill:#3e6bab;fill-opacity:1;fill-rule:nonzero;stroke:none;stroke-width:0.01164"
     id="path204" />
  <path
     d="m 164.21304,144.82076 c -0.0374,0 -0.0749,-0.0134 -0.11096,-0.0227 l -4.04943,-1.67036 c -0.14907,-0.0602 -0.22006,-0.23049 -0.15843,-0.37942 0.0602,-0.14894 0.23049,-0.21886 0.37956,-0.15829 l 4.04956,1.67036 c 0.14894,0.0602 0.21993,0.23048 0.15829,0.37942 -0.0468,0.1123 -0.15481,0.18048 -0.26885,0.18048"
     style="fill:#3e6bab;fill-opacity:1;fill-rule:nonzero;stroke:none;stroke-width:0.01164"
     id="path206" />
  <path
     d="m 163.43081,146.56091 c -0.0414,0 -0.0816,-0.0134 -0.12166,-0.0267 l -3.76547,-1.74015 c -0.14666,-0.0668 -0.2095,-0.24092 -0.14198,-0.38637 0.0668,-0.1456 0.23971,-0.2107 0.38517,-0.14199 l 3.7668,1.74015 c 0.14546,0.0682 0.20829,0.24092 0.14198,0.38638 -0.0495,0.10695 -0.15481,0.16885 -0.26538,0.16885"
     style="fill:#3e6bab;fill-opacity:1;fill-rule:nonzero;stroke:none;stroke-width:0.01164"
     id="path208" />
  <path
     d="m 161.33557,153.09783 c -0.0401,0 -0.0802,-0.0134 -0.11899,-0.0254 l -5.15186,-2.30941 c -0.14666,-0.0655 -0.2119,-0.23744 -0.14666,-0.3841 0.0668,-0.14666 0.23864,-0.21191 0.3853,-0.14666 l 5.15066,2.30941 c 0.14666,0.0655 0.21297,0.23744 0.14666,0.3841 -0.0495,0.10829 -0.15481,0.1722 -0.26538,0.1722"
     style="fill:#3e6bab;fill-opacity:1;fill-rule:nonzero;stroke:none;stroke-width:0.01164"
     id="path210" />
  <path
     d="m 160.55333,154.66111 c -0.0401,0 -0.0789,-0.0134 -0.11765,-0.0254 -2.13361,-0.94401 -4.69904,-2.08481 -4.80386,-2.1546 -0.13383,-0.0896 -0.16992,-0.27006 -0.0802,-0.40389 0.0856,-0.12968 0.25843,-0.16765 0.39119,-0.0882 0.19319,0.10161 2.92855,1.31768 4.72926,2.11503 0.14666,0.0655 0.21311,0.23744 0.14786,0.3841 -0.0481,0.10829 -0.15481,0.1734 -0.26658,0.1734"
     style="fill:#3e6bab;fill-opacity:1;fill-rule:nonzero;stroke:none;stroke-width:0.01164"
     id="path212" />
  <path
     d="m 162.18759,131.30787 c -0.0722,0 -0.14425,-0.0227 -0.20481,-0.0668 -0.10428,-0.0762 -0.1595,-0.20602 -0.13971,-0.33396 l 0.35509,-2.38041 c 0.0281,-0.19091 0.20709,-0.32247 0.39693,-0.29332 0.19078,0.0281 0.32233,0.20602 0.29332,0.39693 l -0.25615,1.71809 4.6223,-2.29658 c 0.1734,-0.0856 0.3829,-0.0147 0.469,0.1583 0.0856,0.17219 0.0147,0.38182 -0.1583,0.46792 l -5.22165,2.59338 c -0.0495,0.0241 -0.10294,0.0361 -0.15602,0.0361"
     style="fill:#d54a41;fill-opacity:1;fill-rule:nonzero;stroke:none;stroke-width:0.01164"
     id="path214" />
</svg>
